<svg width="14" height="17" viewBox="0 0 14 17" fill="none" xmlns="http://www.w3.org/2000/svg">
    <path d="M7 0C3.13906 0 0 3.04938 0 6.8C0 10.3275 4.58281 17 7 17C9.41719 17 14 10.3275 14 6.8C14 3.04938 10.8609 0 7 0ZM7 15.3C5.78594 15.13 1.75 9.78563 1.75 6.8C1.75 3.98438 4.10156 1.7 7 1.7C9.89844 1.7 12.25 3.98438 12.25 6.8C12.25 9.78563 8.21406 15.13 7 15.3Z" fill="#4E5FA3"/>
    <path d="M7 8.5001C7.9665 8.5001 8.75 7.73898 8.75 6.8001C8.75 5.86121 7.9665 5.1001 7 5.1001C6.0335 5.1001 5.25 5.86121 5.25 6.8001C5.25 7.73898 6.0335 8.5001 7 8.5001Z" fill="#4E5FA3"/>
</svg>
