<svg width="24" height="24" viewBox="0 0 24 24" fill="none" xmlns="http://www.w3.org/2000/svg">
    <path d="M16.5 12.015H7.5C6.675 12.015 6 12.555 6 13.215C6 13.875 6.675 14.415 7.5 14.415H16.5C17.325 14.415 18 13.875 18 13.215C18 12.555 17.325 12.015 16.5 12.015Z" fill="#43352C"/>
    <path d="M16.5 16.8151H7.5C6.675 16.8151 6 17.3551 6 18.0151C6 18.6751 6.675 19.2151 7.5 19.2151H16.5C17.325 19.2151 18 18.6751 18 18.0151C18 17.3551 17.325 16.8151 16.5 16.8151Z" fill="#43352C"/>
    <path d="M23.9813 8.34002C23.9813 8.29502 23.9813 8.24999 23.9625 8.20499C23.9625 8.17499 23.9437 8.13 23.925 8.1C23.9062 8.055 23.9063 8.02499 23.8875 7.97999C23.8688 7.94999 23.85 7.905 23.8312 7.875C23.8125 7.845 23.7938 7.80001 23.7563 7.77001C23.7188 7.74001 23.7 7.69501 23.6625 7.66501C23.6438 7.65001 23.625 7.61999 23.6063 7.60499L15.3563 0.404993L15.3375 0.390015C15.3 0.360015 15.2625 0.33 15.225 0.3C15.1875 0.27 15.15 0.255 15.1125 0.225C15.075 0.195 15.0188 0.180015 14.9813 0.165015C14.9438 0.150015 14.9063 0.119993 14.85 0.104993C14.8125 0.0899927 14.7563 0.0749854 14.7188 0.0599854C14.6812 0.0449854 14.625 0.0299927 14.5875 0.0299927C14.55 0.0149927 14.4937 0.0150146 14.4562 0.0150146C14.4 0.0150146 14.3438 0 14.2875 0C14.2688 0 14.2688 0 14.25 0H4.5C2.025 0 0 1.62 0 3.6V20.4C0 22.38 2.025 24 4.5 24H19.5C21.975 24 24 22.38 24 20.4V8.4C24 8.385 24 8.37002 23.9813 8.34002ZM15 3.64501L19.0875 7.21501H16.5C15.675 7.21501 15 6.67501 15 6.01502V3.64501ZM19.5 21.615H4.5C3.675 21.615 3 21.075 3 20.415V3.61501C3 2.95501 3.675 2.41501 4.5 2.41501H12V6.01502C12 7.99502 14.025 9.61502 16.5 9.61502H21V20.415C21 21.075 20.325 21.615 19.5 21.615Z" fill="#43352C"/>
</svg>
